<svg xmlns="http://www.w3.org/2000/svg" viewBox="0 0 1538.6 1802.3"><defs><style>.cls-1{fill:#b9b9c1;}.cls-2{fill:#027d68;}.cls-3{fill:#ca822a;}.cls-4{fill:#995524;}.cls-5{fill:#245c59;}.cls-6{fill:#c86f2f;}</style></defs><g id="Layer_2" data-name="Layer 2"><g id="Layer_1-2" data-name="Layer 1"><path class="cls-1" d="M312,1193.3,91,1015.1,193.6,798.7l-13.7-333L361.1,157,789.8,82.8,1185.2,212l201.2,315.8,26.7,229.6-101.8,279.4-273.2,120.6L754.3,1034,448.7,996.9ZM134.4,1005.2l170.3,137.3L432,959.6l331.6,40.3L1038,1119.2l245.5-108.4,93.9-257.6-24.8-213.3L1162.4,241.4,787.2,118.8,383.1,188.7,215.3,474.6,229,805.9Z"/><path class="cls-1" d="M458.8,1014.5,178.2,799,449.5,667ZM244.4,805.7,421.9,942,416,722.2Z"/><path class="cls-1" d="M438.4,724.2,156.8,455.3l418.8-28.1ZM238.5,484.9,427.1,665.1l92-199Z"/><path class="cls-1" d="M502.1,480.9,795.8,59.8l77.5,291.8ZM781.3,141.7,592.6,412.3l238.6-83Z"/><path class="cls-1" d="M423.8,1013.2,414.7,676l413.1,24.4Zm27-300,6.1,230.1L732.6,729.8Z"/><path class="cls-1" d="M775.6,736.6l-258.3-298,663.8-233,218.4,342.8-284.7,29.1Zm-198.1-282,207.2,239,320.7-150.3,234.1-24-173-271.5Z"/><path class="cls-1" d="M1051.8,1194.4,734.2,673.3,1076,839.5ZM826.2,756.9l198.2,325.3,15.1-221.5Z"/><polygon class="cls-1" points="1289.5 1058.8 1046.8 863.7 1068.7 836.4 1275 1002.2 1373.7 761.7 1090.4 568.1 1158.8 264 1003.2 305.1 867.4 340.9 866.7 344.6 797.6 717.3 776.4 1018.2 741.5 1015.7 762.8 712.9 763 711.9 832.4 338.1 833.6 331.7 837.1 312.7 1205.5 215.5 1129.8 552.6 1416.8 748.8 1289.5 1058.8"/><path class="cls-1" d="M1070.9,875.9,760.5,725l80.2-417.4,288.4,246Zm-271-170.7,244.8,119.1,46.4-257.1L863.8,373.3Z"/><rect class="cls-1" x="442.2" y="147.2" width="35" height="325.1" transform="translate(-94.5 296.7) rotate(-32.6)"/><path class="cls-2" d="M864.3,82.1A82.1,82.1,0,1,1,782.3,0,82.1,82.1,0,0,1,864.3,82.1Z"/><path class="cls-2" d="M648,435.5a82.1,82.1,0,1,1-82-82A82,82,0,0,1,648,435.5Z"/><path class="cls-2" d="M519.6,680.6a82.1,82.1,0,1,1-82.1-82.1A82.2,82.2,0,0,1,519.6,680.6Z"/><path class="cls-2" d="M869.1,726a82.1,82.1,0,1,1-82-82.1A82.1,82.1,0,0,1,869.1,726Z"/><path class="cls-2" d="M934.3,344.3a82.1,82.1,0,1,1-82.1-82A82,82,0,0,1,934.3,344.3Z"/><path class="cls-2" d="M841,1023.2a82.1,82.1,0,1,1-82-82A82,82,0,0,1,841,1023.2Z"/><path class="cls-3" d="M455.8,175.4a82.1,82.1,0,1,1-82.1-82.1A82.1,82.1,0,0,1,455.8,175.4Z"/><path class="cls-3" d="M279.7,454.5a82.1,82.1,0,1,1-82.1-82.1A82,82,0,0,1,279.7,454.5Z"/><path class="cls-3" d="M279.7,802.3a82.1,82.1,0,1,1-82.1-82A82,82,0,0,1,279.7,802.3Z"/><path class="cls-3" d="M181.1,1010.1a82.1,82.1,0,1,1-82.1-82A82,82,0,0,1,181.1,1010.1Z"/><path class="cls-3" d="M387.6,1153.2a82.1,82.1,0,1,1-82.1-82A82.1,82.1,0,0,1,387.6,1153.2Z"/><path class="cls-3" d="M519.6,963.6a82.1,82.1,0,1,1-82.1-82.1A82.1,82.1,0,0,1,519.6,963.6Z"/><path class="cls-4" d="M1277.4,239.8a82.1,82.1,0,1,1-82.1-82.1A82.2,82.2,0,0,1,1277.4,239.8Z"/><path class="cls-4" d="M1459.8,526.7a82.1,82.1,0,1,1-82.1-82A82.1,82.1,0,0,1,1459.8,526.7Z"/><path class="cls-4" d="M1477.3,757.8a82.1,82.1,0,1,1-82-82A82,82,0,0,1,1477.3,757.8Z"/><path class="cls-4" d="M1192.2,563.2a82.1,82.1,0,1,1-82.1-82.1A82.1,82.1,0,0,1,1192.2,563.2Z"/><path class="cls-4" d="M1139.9,865.1a82.1,82.1,0,1,1-82.1-82A82.1,82.1,0,0,1,1139.9,865.1Z"/><path class="cls-4" d="M1130.6,1151.9a82.1,82.1,0,1,1-82.1-82.1A82.1,82.1,0,0,1,1130.6,1151.9Z"/><path class="cls-4" d="M1368.6,1022.7a82.1,82.1,0,1,1-82.1-82.1A82.1,82.1,0,0,1,1368.6,1022.7Z"/><path class="cls-5" d="M26.2,1638.8C8.7,1627.7,0,1610.9,0,1588.2c0-12,2.1-21.2,6.2-27.5s10.3-9.5,18.4-9.5c5.8,0,10.6,1.5,14.4,4.6a14.5,14.5,0,0,1,5.5,11.8,55.6,55.6,0,0,1-1,11.4,26.5,26.5,0,0,1-.5,4.6,51.2,51.2,0,0,0-.4,6.9c0,9.8,4.9,17.1,14.9,21.9s23.8,7.2,41.7,7.2,33.1-3.3,43.5-10,15.7-16,15.7-28a27.5,27.5,0,0,0-7.2-19.1,58.8,58.8,0,0,0-18-13.4c-7.2-3.6-17.3-8.1-30.4-13.3-16.8-6.6-30.5-12.8-41.1-18.7a86.4,86.4,0,0,1-27.2-24c-7.5-10.2-11.3-22.8-11.3-37.8s4.2-29.7,12.6-41.9,20.6-21.8,36.4-28.5,34.4-10.2,55.8-10.2a131.2,131.2,0,0,1,43.9,7.1c13.3,4.7,23.9,11.8,31.9,21.4s11.9,21.4,11.9,35.4-2,24.1-6.2,31.1-10.2,10.4-18.3,10.4a20.5,20.5,0,0,1-14.3-5.2,16.3,16.3,0,0,1-5.7-12.4,58.6,58.6,0,0,1,1-11.5c.7-6.5,1-10.7,1-12.4,0-9.2-4.5-16.2-13.4-21s-20.1-7.2-33.4-7.2c-18.8,0-33.2,3.5-43.1,10.3s-14.9,16.6-14.9,29a31.5,31.5,0,0,0,7.7,21.3,62.1,62.1,0,0,0,19.2,14.7c7.6,3.9,18.3,8.6,32,14.1,16.6,6.8,29.9,12.9,40,18.3a80.5,80.5,0,0,1,25.7,22.3c7.1,9.4,10.6,20.9,10.6,34.7,0,25.7-9.7,45.5-29.3,59.4s-45.6,20.8-78.4,20.8C66.9,1655.3,43.6,1649.8,26.2,1638.8Z"/><path class="cls-5" d="M235.5,1641.2c-3.3-8.7-5-22.7-5-41.9a266.3,266.3,0,0,1,12.1-80.9c1.9-6.3,5.2-10.9,9.6-13.9s10.8-4.4,18.9-4.4c4.3,0,7.4.6,9.1,1.7s2.7,3.1,2.7,6.2-1.7,11.3-5,23.5c-2.1,8.8-3.9,16.4-5.2,22.8a235.5,235.5,0,0,0-3.3,24.1c5.9-17.1,13-31.5,21.1-43.3s16.6-20.5,25.3-26.3,16.7-8.7,24.3-8.7,13.1,1.8,16.2,5.3,4.8,8.8,4.8,16-2.1,19.6-6.2,38c-1.8,7.8-3,13.7-3.6,17.6q16.3-40.2,36.3-58.6c13.3-12.2,25.8-18.3,37.3-18.3q21.3,0,21.3,21.3,0,12.8-7.2,46.2c-4.1,18.9-6.2,31.5-6.2,37.6,0,8.7,3.1,13.1,9.5,13.1,4.3,0,9.5-2.7,15.5-8s14.1-14,24.1-26.1c2.6-3,5.6-4.5,8.8-4.5a7.4,7.4,0,0,1,6.7,3.9c1.7,2.6,2.5,6.2,2.5,10.8,0,8.7-2.1,15.5-6.2,20.3a144.1,144.1,0,0,1-30.3,28.5,63.6,63.6,0,0,1-36.8,11.1c-11.2,0-19.6-3.2-25.2-9.7s-8.6-15.7-8.6-27.9c0-6.1,1.6-17.1,4.6-32.8,2.9-13.7,4.3-23.2,4.3-28.5,0-3.4-1.2-5.2-3.6-5.2s-6.9,3.7-12.1,11-10.5,16.9-15.7,28.9a232.4,232.4,0,0,0-12.8,38q-3.6,15.8-8.4,21c-3.1,3.5-8.2,5.2-15.2,5.2s-12.6-3.4-16.2-10.3-5.4-15.2-5.4-25.1q0-12.3,3.3-36c1.7-13.9,2.6-23.1,2.6-27.5s-1.2-5.2-3.6-5.2-7.4,3.9-12.4,11.8-9.9,17.9-14.6,30.1a280.5,280.5,0,0,0-11.3,36c-2.4,10.3-5.2,17.2-8.3,20.8s-8.2,5.4-14.9,5.4C244.8,1654.3,238.9,1649.9,235.5,1641.2Z"/><path class="cls-5" d="M481.2,1639.6c-8-9.8-12.1-22.7-12.1-38.7a107.8,107.8,0,0,1,12.1-49.6,103.9,103.9,0,0,1,32.3-37.6c13.4-9.5,27.6-14.2,42.7-14.2,4.8,0,8,.9,9.7,2.7s3,5.2,4.1,10a82,82,0,0,1,14.4-1.3c10.6,0,16,3.8,16,11.5,0,4.6-1.6,15.5-4.9,32.7-5,25.1-7.5,42.6-7.5,52.4a11.7,11.7,0,0,0,2.4,7.8,8,8,0,0,0,6.4,3c4.1,0,9.2-2.7,15.1-8s13.8-14,23.9-26.1c2.6-3,5.5-4.5,8.8-4.5a7.6,7.6,0,0,1,6.7,3.9c1.6,2.6,2.5,6.2,2.5,10.8,0,8.7-2.1,15.5-6.3,20.3a163.6,163.6,0,0,1-28.4,28.1c-10.1,7.7-19.8,11.5-29.2,11.5a30.1,30.1,0,0,1-19.8-7.4c-6-4.9-10.5-11.6-13.6-20.1q-16.9,27.5-42.9,27.5Q493.4,1654.3,481.2,1639.6Zm58-26.9c4.3-5.6,7.5-13.2,9.5-22.6l12.1-60.2c-9.2.2-17.6,3.7-25.4,10.3s-13.9,15.5-18.5,26.4a88.4,88.4,0,0,0-6.9,34.7c0,6.7,1.4,11.8,4.1,15s6.5,4.9,11.3,4.9S534.8,1618.4,539.2,1612.7Z"/><path class="cls-5" d="M771.8,1550a17,17,0,0,1,5,12.6,24.8,24.8,0,0,1-1.9,9.2,55.1,55.1,0,0,1-14.7,20.3c-6.4,5.5-13.4,8.2-21,8.2a20.6,20.6,0,0,1-15.5-6.6c-4.3-4.3-6.4-10.2-6.4-17.6q0-6.3.6-13.5a56.4,56.4,0,0,0,.7-7.2,5.7,5.7,0,0,0-1.2-3.9,3.4,3.4,0,0,0-2.8-1.3c-3,0-7.2,3.7-12.4,11s-10.5,16.9-15.7,28.9a242.3,242.3,0,0,0-12.8,38c-2.4,10.5-5.1,17.5-8.2,21s-8,5.2-15,5.2-14.2-4.4-17.5-13.1-5.1-22.7-5.1-41.9a266.3,266.3,0,0,1,12.1-80.9c2-6.3,5.2-10.9,9.7-13.9s10.7-4.4,18.8-4.4c4.4,0,7.4.6,9.2,1.7s2.6,3.1,2.6,6.2-1.7,11.3-4.9,23.5c-2.2,8.8-4,16.4-5.3,23a218.5,218.5,0,0,0-3.2,24.2c7.2-18.8,15.2-34.1,24.2-45.8s17.7-20.2,26.2-25.3,16.2-7.5,23.2-7.5,11.2,1.8,14.6,5.4,5.1,8.9,5.1,15.9c0,4.1-1.2,12-3.6,23.6h2.9A17.1,17.1,0,0,1,771.8,1550Z"/><path class="cls-5" d="M843.3,1531.2c-.4,10.9-.7,19.4-.7,25.5,0,15.8.9,28,2.5,36.9s4.4,15.2,8.2,19,9.1,5.7,15.9,5.7c3.5,0,7.6-1.1,12.4-3.3a51.7,51.7,0,0,0,13.1-8.5q3.6-3.3,7.2-3.3c2.6,0,4.7,1.5,6.4,4.5a21.8,21.8,0,0,1,2.4,10.6,31.8,31.8,0,0,1-2.4,12.1,24.8,24.8,0,0,1-7.4,9.8,58.8,58.8,0,0,1-38.6,14.1q-31,0-45.5-26t-14.4-67.9c0-9.7.3-19.4,1-29.2H790.6c-6.6,0-11-1.2-13.3-3.6s-3.4-6.2-3.4-11.4c0-12.3,4.9-18.4,14.7-18.4h18.7a321.2,321.2,0,0,1,17-65.8c7.7-19.8,16.9-35.7,27.7-47.4s22.4-17.7,34.8-17.7c9.2,0,16.4,4,21.7,12.1s7.8,18.2,7.8,30.4q0,50.8-42.6,88.4h36.7c3.5,0,6,.8,7.5,2.3s2.3,4.4,2.3,8.5c0,15.1-12.3,22.6-37,22.6ZM867,1410.6c-4,8.2-7.8,19.5-11.4,34a455.1,455.1,0,0,0-9,48.3q19.4-16.7,28.9-37.5c6.5-13.8,9.7-26.4,9.7-37.8s-2.4-19.3-7.2-19.3C874.7,1398.3,871.1,1402.4,867,1410.6Z"/><path class="cls-6" d="M1192.8,1583.6q2.4,3.9,2.4,10.8c0,8.7-2,15.5-6.2,20.3a144.1,144.1,0,0,1-30.3,28.5,63.6,63.6,0,0,1-36.8,11.1c-11.6,0-21-4.1-28.2-12.4-12.4,8-25.4,12.2-38.9,12.4q-4.3,63.2-19.3,105.6c-10.1,28.2-24.8,42.4-44.2,42.4-11.8,0-20.5-4.3-26.2-12.8s-8.5-20.3-8.5-35.3q0-32.1,14.7-74.9t45.5-94.1c0-31.8-.2-54-.6-66.4a16.4,16.4,0,0,1,7.5-15.1c5.2-3.7,11.8-5.6,19.6-5.6,4.6,0,7.9,1,10,2.8s3.2,5.5,3.4,11,.2,9.5.4,12.1c7-8.7,13.8-15,20.6-18.8a43.6,43.6,0,0,1,21.6-5.7q18.3,0,30,14.7c7.7,9.8,11.6,22.7,11.6,38.6a104,104,0,0,1-5.6,33.7,106.6,106.6,0,0,1-15.4,29.8,44,44,0,0,0,11.5,2c7.2,0,14.1-2.6,20.6-7.9s15-13.9,25.2-26.2c2.6-3,5.6-4.5,8.9-4.5A7.7,7.7,0,0,1,1192.8,1583.6Zm-184.2,148.1q6-38.4,7.6-95.7a469.1,469.1,0,0,0-22.3,62.5c-5.5,19.9-8.2,36.6-8.2,50.1,0,7,.8,12.3,2.5,16s3.5,5.6,5.7,5.6C999.8,1770.2,1004.7,1757.4,1008.6,1731.7Zm69.6-121.8a75.8,75.8,0,0,0,15.9-25.5,88.1,88.1,0,0,0,5.9-31.9c0-6.6-1.3-11.5-4-14.9a12.5,12.5,0,0,0-10.4-5.1q-11.8,0-28.5,24.9c-.2,9.6-.4,23.7-.4,42.2,0,10.1-.1,17.8-.3,23.3C1064.3,1621.1,1071.5,1616.8,1078.2,1609.9Z"/><path class="cls-6" d="M1174.4,1641.2c-3.4-8.7-5-22.7-5-41.9a266.3,266.3,0,0,1,12.1-80.9c1.9-6.3,5.2-10.9,9.6-13.9s10.8-4.4,18.9-4.4c4.3,0,7.4.6,9.1,1.7s2.6,3.1,2.6,6.2-1.6,11.3-4.9,23.5c-2.2,8.8-3.9,16.4-5.2,22.8a235.5,235.5,0,0,0-3.3,24.1q8.9-25.7,21.1-43.3c8.2-11.7,16.6-20.5,25.2-26.3s16.8-8.7,24.4-8.7,13.1,1.8,16.2,5.3,4.8,8.8,4.8,16-2.1,19.6-6.2,38c-1.8,7.8-3,13.7-3.6,17.6q16.3-40.2,36.3-58.6c13.3-12.2,25.7-18.3,37.3-18.3q21.3,0,21.3,21.3,0,12.8-7.2,46.2c-4.2,18.9-6.2,31.5-6.2,37.6,0,8.7,3.1,13.1,9.5,13.1,4.3,0,9.5-2.7,15.5-8s14-14,24.1-26.1c2.6-3,5.5-4.5,8.8-4.5a7.4,7.4,0,0,1,6.7,3.9c1.7,2.6,2.5,6.2,2.5,10.8,0,8.7-2.1,15.5-6.2,20.3a144.1,144.1,0,0,1-30.3,28.5,63.6,63.6,0,0,1-36.8,11.1c-11.2,0-19.6-3.2-25.3-9.7s-8.5-15.7-8.5-27.9c0-6.1,1.6-17.1,4.6-32.8,2.9-13.7,4.3-23.2,4.3-28.5,0-3.4-1.2-5.2-3.6-5.2s-6.9,3.7-12.1,11-10.5,16.9-15.8,28.9a242.1,242.1,0,0,0-12.7,38q-3.6,15.8-8.4,21c-3.1,3.5-8.2,5.2-15.2,5.2s-12.6-3.4-16.2-10.3-5.4-15.2-5.4-25.1q0-12.3,3.3-36c1.7-13.9,2.6-23.1,2.6-27.5s-1.2-5.2-3.6-5.2-7.4,3.9-12.4,11.8-9.9,17.9-14.6,30.1a280.5,280.5,0,0,0-11.3,36c-2.4,10.3-5.2,17.2-8.4,20.8s-8.1,5.4-14.9,5.4S1177.8,1649.9,1174.4,1641.2Z"/><path class="cls-6" d="M1434.7,1644.6a59.3,59.3,0,0,1-20.5-25.3,82.9,82.9,0,0,1-6.8-33.7q0-24.9,9.3-44.4c6.2-13,14.7-23.1,25.4-30.4a61.5,61.5,0,0,1,36-11c12.8,0,23.9,3.2,33,9.6a59.9,59.9,0,0,1,20.7,25.4,84.6,84.6,0,0,1,6.8,33.7c0,16.6-3.1,31.4-9.5,44.4s-14.9,23.1-25.7,30.4a61.8,61.8,0,0,1-35.8,11C1454.7,1654.3,1443.7,1651.1,1434.7,1644.6Zm55.3-37.8c5.1-8,7.7-19.8,7.7-35.3,0-12-2.2-21.1-6.5-27.2s-9.6-9.2-15.7-9.2q-11.9,0-19.5,12c-5.2,8-7.7,19.8-7.7,35.5,0,12.5,2.2,21.6,6.5,27.5s9.8,8.8,16.4,8.8S1484.9,1614.9,1490,1606.8Z"/></g></g></svg>